<svg version="1.2" xmlns="http://www.w3.org/2000/svg" viewBox="0 0 49 49" width="49" height="49">
	<title>aegis_crate-svg</title>
	<style>
		.s0 { fill: none;stroke: #31220c;stroke-width: .4 } 
		.s1 { fill: #d96300 } 
		.s2 { fill: #9b875c } 
		.s3 { fill: none } 
		.s4 { fill: #4a2a13;stroke: #220e00;stroke-linecap: round;stroke-linejoin: round;stroke-width: 1 } 
		.s5 { fill: #645e31;stroke: #4c301c;stroke-width: 2 } 
		.s6 { fill: none;stroke: #4c301c;stroke-linecap: round;stroke-linejoin: round;stroke-width: 2 } 
		.s7 { fill: none;stroke: #4c301c;stroke-width: 2 } 
		.s8 { fill: #999999;stroke: #301606;stroke-linecap: round;stroke-linejoin: round;stroke-width: .9 } 
		.s9 { fill: #999999 } 
	</style>
	<g id="layer1">
		<path id="path22979" class="s0" d="m23.8 119.4c-2.5 0-4.5-2-4.5-4.5 0-2.4 2-4.4 4.5-4.4 2.4 0 4.4 2 4.4 4.4 0 2.5-2 4.5-4.4 4.5z"/>
		<path id="rect4220" class="s1" d="m7.8 7.8h33.2v33.2h-33.2z"/>
		<path id="rect938" class="s2" d="m1 1v47h47v-47zm7.9 7.9h31.1v31.1h-31.1z"/>
		<path id="rect2620" class="s3" d="m7.8 7.8h33.2v33.2h-33.2z"/>
		<path id="path851" class="s4" d="m5.1 6.7c-0.9 0-1.7-0.7-1.7-1.6 0-0.9 0.8-1.7 1.7-1.7 0.9 0 1.6 0.8 1.6 1.7 0 0.9-0.7 1.6-1.6 1.6z"/>
		<path id="path851-3" class="s4" d="m43.9 6.7c-0.9 0-1.6-0.7-1.6-1.6 0-0.9 0.7-1.7 1.6-1.7 0.9 0 1.6 0.8 1.6 1.7 0 0.9-0.7 1.6-1.6 1.6z"/>
		<path id="path851-6" class="s4" d="m5.1 45.5c-0.9 0-1.7-0.7-1.7-1.6 0-0.9 0.8-1.6 1.7-1.6 0.9 0 1.6 0.7 1.6 1.6 0 0.9-0.7 1.6-1.6 1.6z"/>
		<path id="path851-7" class="s4" d="m43.9 45.5c-0.9 0-1.6-0.7-1.6-1.6 0-0.9 0.7-1.6 1.6-1.6 0.9 0 1.6 0.7 1.6 1.6 0 0.9-0.7 1.6-1.6 1.6z"/>
		<path id="rect3681-5" class="s5" d="m8.9 8.9h31.1v31.1h-31.1z"/>
		<path id="rect2330" class="s6" d="m1 1h47v47h-47z"/>
		<path id="path5886" class="s7" d="m40 8.9h7.9"/>
		<path id="path5886-3" class="s7" d="m40 40h7.9"/>
		<path id="path5886-6" class="s7" d="m1.1 40h7.8"/>
		<path id="path5886-7" class="s7" d="m1.1 8.9h7.8"/>
		<path id="Shape 4 copy" fill-rule="evenodd" class="s8" d="m33.7 11.7v17.8l-21.5 5.2v-17.5z"/>
		<path id="Shape 6" fill-rule="evenodd" class="s9" d="m16.1 37l-3.5-2.6v-0.9l7.3-2.4z"/>
		<path id="Shape 6 copy" fill-rule="evenodd" class="s9" d="m32.5 15.6l0.6-3.3 0.7-0.2 3.4 2.7z"/>
		<path id="Shape 4" fill-rule="evenodd" class="s8" d="m37.7 14.7v17.8l-21.5 5.2v-17.5z"/>
		<path id="Shape 5" fill-rule="evenodd" class="s8" d="m12.2 34.7l3.9 2.9z"/>
		<path id="Shape 5 copy" fill-rule="evenodd" class="s8" d="m12.2 17.3l4 2.9z"/>
		<path id="Shape 5 copy 2" fill-rule="evenodd" class="s8" d="m33.7 11.7l3.9 2.9z"/>
	</g>
</svg>